# xmcd CD database file
#
# Track frame offsets:
#	150
#	3360
#	23240
#	42197
#	60290
#	81485
#	103608
#	129930
#	135572
#	158846
#	179211
#	196308
#	216033
#	236240
#
# Disc length: 3462 seconds
#
# Revision: 1
# Processed by: cddbd v1.5.2PL0 Copyright (c) Steve Scherf et al.
# Submitted via: CDex 1.51
#
DISCID=bb0d840e
DTITLE=Unkle - Where Did The Night Fall
DYEAR=2010
DGENRE=
TTITLE0=Nowhere
TTITLE1=Follow Me Down
TTITLE2=Natural Selection
TTITLE3=Joy Factory
TTITLE4=The Answer
TTITLE5=On A Wire
TTITLE6=Falling Stars
TTITLE7=Heavy Drug
TTITLE8=Caged Bird
TTITLE9=Ablivion
TTITLE10=The Runaway
TTITLE11=Ever Rest
TTITLE12=The Healing
TTITLE13=Another Night Out
EXTD=YEAR: 2010
EXTT0=
EXTT1=
EXTT2=
EXTT3=
EXTT4=
EXTT5=
EXTT6=
EXTT7=
EXTT8=
EXTT9=
EXTT10=
EXTT11=
EXTT12=
EXTT13=
PLAYORDER=
